HIERARCHY
ROOT Hips
{
  OFFSET 52.9477 95.6818 11.712
  CHANNELS 6 Xposition Yposition Zposition Zrotation Xrotation Yrotation
  JOINT spine
  {
    OFFSET 0 7.96568 0.458067
    CHANNELS 3 Zrotation Xrotation Yrotation
    JOINT spine1
    {
      OFFSET 0 10.2431 0
      CHANNELS 3 Zrotation Xrotation Yrotation
      JOINT spine2
      {
        OFFSET 0 9.81475 0
        CHANNELS 3 Zrotation Xrotation Yrotation
        JOINT Neck
        {
          OFFSET 0 25.1986 1.20138
          CHANNELS 3 Zrotation Xrotation Yrotation
          JOINT Head
          {
            OFFSET 0 7.61315 0
            CHANNELS 3 Zrotation Xrotation Yrotation
            End Site
            {
              OFFSET 0 18.4281 -6.07733
            }
          }
        }
        JOINT RightShoulder
        {
          OFFSET -4.1327 10.5992 -0.575451
          CHANNELS 3 Zrotation Xrotation Yrotation
          JOINT RightArm
          {
            OFFSET 0 13.9018 0
            CHANNELS 3 Zrotation Xrotation Yrotation
            JOINT RightArmRoll
            {
              OFFSET 0 7.01789 0
              CHANNELS 3 Zrotation Xrotation Yrotation
              JOINT RightForeArm
              {
                OFFSET 0 20.4406 0
                CHANNELS 3 Zrotation Xrotation Yrotation
                JOINT RightForeArmRoll
                {
                  OFFSET 0 7.87515 0
                  CHANNELS 3 Zrotation Xrotation Yrotation
                  JOINT RightHand
                  {
                    OFFSET 0 15.8037 0
                    CHANNELS 3 Zrotation Xrotation Yrotation
                    End Site
                    {
                      OFFSET 0 0 0
                    }
                  }
                }
              }
            }
          }
        }
        JOINT LeftShoulder
        {
          OFFSET 4.1327 10.5992 -0.575451
          CHANNELS 3 Zrotation Xrotation Yrotation
          JOINT LeftArm
          {
            OFFSET 0 13.9018 0
            CHANNELS 3 Zrotation Xrotation Yrotation
            JOINT LeftArmRoll
            {
              OFFSET 0 7.01789 0
              CHANNELS 3 Zrotation Xrotation Yrotation
              JOINT LeftForeArm
              {
                OFFSET 0 20.4406 0
                CHANNELS 3 Zrotation Xrotation Yrotation
                JOINT LeftForeArmRoll
                {
                  OFFSET 0 7.87515 0
                  CHANNELS 3 Zrotation Xrotation Yrotation
                  JOINT LeftHand
                  {
                    OFFSET 0 15.8037 0
                    CHANNELS 3 Zrotation Xrotation Yrotation
                    End Site
                    {
                      OFFSET 0 0 0
                    }
                  }
                }
              }
            }
          }
        }
      }
    }
  }
  JOINT RightUpLeg
  {
    OFFSET -7.06048 -1.2947 -1.0861
    CHANNELS 3 Zrotation Xrotation Yrotation
    JOINT RightUpLegRoll
    {
      OFFSET 0 18.5308 0
      CHANNELS 3 Zrotation Xrotation Yrotation
      JOINT RightLeg
      {
        OFFSET 0 -22.9476 0
        CHANNELS 3 Zrotation Xrotation Yrotation
        JOINT RightLegRoll
        {
          OFFSET 0 23.0226 0
          CHANNELS 3 Zrotation Xrotation Yrotation
          JOINT RightFoot
          {
            OFFSET 0 19.1625 0
            CHANNELS 3 Zrotation Xrotation Yrotation
            JOINT RightToeBase
            {
              OFFSET 0 16.0188 0
              CHANNELS 3 Zrotation Xrotation Yrotation
              End Site
              {
                OFFSET 0.00678979 7.75782 -0.894206
              }
            }
          }
        }
      }
    }
  }
  JOINT LeftUpLeg
  {
    OFFSET 7.06048 -1.2947 -1.0861
    CHANNELS 3 Zrotation Xrotation Yrotation
    JOINT LeftUpLegRoll
    {
      OFFSET 0 18.5309 0
      CHANNELS 3 Zrotation Xrotation Yrotation
      JOINT LeftLeg
      {
        OFFSET 0 22.9475 0
        CHANNELS 3 Zrotation Xrotation Yrotation
        JOINT LeftLegRoll
        {
          OFFSET 0 23.2355 0
          CHANNELS 3 Zrotation Xrotation Yrotation
          JOINT LeftFoot
          {
            OFFSET 0 18.9496 0
            CHANNELS 3 Zrotation Xrotation Yrotation
            JOINT LeftToeBase
            {
              OFFSET 0 16.0188 0
              CHANNELS 3 Zrotation Xrotation Yrotation
              End Site
              {
                OFFSET -0.0304289 7.75781 -0.894207
              }
            }
          }
        }
      }
    }
  }
}
MOTION
Frames: 6
Frame Time: 0.00208333
53.3343 95.6231 13.3466 1.22655 1.53825 3.92051 -0.410881 -2.90486 -0.160578 -0.824886 -1.80326 -0.292812 -0.825136 -0.15829 -0.279035 -0.499302 40.3556 -1.7799 4.34363 -9.98778 -1.18898 4.23378 -12.5524 -10.2287 -0.441502 42.6477 102.494 9.54166e-015 3.18055e-015 6.36111e-015 -20.2995 30.6162 14.5235 6.70473e-006 -2.80872e-006 -3.01101 8.03025 -4.95137 0.697634 -4.12498 -13.7515 12.2919 13.8737 43.7644 -105.899 2.22639e-014 -5.96354e-015 -2.38542e-015 20.5925 28.7705 -13.423 3.18055e-005 2.69424e-006 3.00592 -8.03008 -4.95138 -0.697593 172.816 0.107615 -0.686836 180 7.01549e-015 178.931 177.716 6.58922 179.629 3.02663e-006 1.24668e-006 0.163904 -20.835 70.4375 21.8249 8.15611 25.5229 -3.09481 -176.021 -0.130041 1.85183 4.54188e-006 -4.6773e-006 -1.06298 -1.94852 -3.19427 0.0250236 -1.37498e-006 -4.95266e-006 -0.0338737 18.8976 68.1543 -19.6782 -8.13649 25.2327 3.48774 
53.3419 95.6236 13.3512 1.23008 1.54107 3.91131 -0.40926 -2.90612 -0.159345 -0.822481 -1.80628 -0.290812 -0.822064 -0.161312 -0.277067 -0.532606 40.3598 -1.76698 4.37816 -9.99104 -1.18592 4.29602 -12.5378 -10.1989 -0.452048 42.6605 102.478 -1.27222e-014 -8.34896e-015 -7.95139e-016 -20.2878 30.4458 14.464 6.70473e-006 -2.80872e-006 -3.01101 8.03025 -4.95137 0.697634 -4.2128 -13.7482 12.276 13.775 43.7777 -105.704 9.54166e-015 6.75868e-015 1.59028e-015 20.5073 28.6724 -13.3386 3.18055e-005 2.69424e-006 3.00591 -8.03008 -4.95138 -0.697593 172.809 0.112203 -0.683144 180 7.01549e-015 178.931 177.716 6.59007 179.629 3.02663e-006 1.24668e-006 0.163857 -20.8345 70.4371 21.8239 8.15608 25.5223 -3.09477 -176.026 -0.128884 1.85245 4.54188e-006 -4.6773e-006 -1.06295 -1.95167 -3.19705 0.0247624 -1.37498e-006 -4.95266e-006 -0.0338482 18.8973 68.1541 -19.6778 -8.13649 25.2327 3.48774 
53.3463 95.63 13.3465 1.23338 1.54397 3.90229 -0.407553 -2.90747 -0.158139 -0.819868 -1.80948 -0.288823 -0.818805 -0.164512 -0.275112 -0.567422 40.3636 -1.75313 4.41311 -9.99318 -1.18266 4.36279 -12.5219 -10.1668 -0.450587 42.6701 102.443 -6.36111e-015 -5.1684e-015 -3.18055e-015 -20.2723 30.2862 14.4041 6.70473e-006 -2.80872e-006 -3.01102 8.03025 -4.95137 0.697634 -4.30472 -13.7431 12.2565 13.6713 43.7902 -105.505 -3.18055e-015 -7.95139e-016 -2.38542e-015 20.4216 28.5761 -13.2546 3.18055e-005 2.69424e-006 3.00591 -8.03008 -4.95138 -0.697593 172.802 0.116789 -0.679631 180 7.01549e-015 178.931 177.716 6.59084 179.629 3.02663e-006 1.24668e-006 0.16381 -20.834 70.4367 21.823 8.15604 25.5218 -3.09479 -176.03 -0.12772 1.85296 4.54188e-006 -4.6773e-006 -1.06294 -1.95482 -3.19968 0.0245112 -1.37498e-006 -4.95266e-006 -0.0338228 18.897 68.1539 -19.6774 -8.13649 25.2327 3.48774 
53.3496 95.6289 13.3494 1.2364 1.54684 3.89346 -0.405748 -2.90892 -0.15697 -0.817002 -1.81285 -0.286851 -0.815329 -0.167875 -0.273179 -0.604099 40.3672 -1.73816 4.44854 -9.9939 -1.17918 4.43415 -12.5045 -10.132 -0.433626 42.6759 102.385 -5.51738e-033 3.97569e-016 7.95139e-016 -20.2519 30.1404 14.3439 6.70473e-006 -2.80872e-006 -3.01102 8.03025 -4.95137 0.697634 -4.40059 -13.7357 12.233 13.5616 43.8018 -105.302 3.18055e-015 1.66979e-014 -0 20.3356 28.4827 -13.1715 3.18055e-005 2.69424e-006 3.0059 -8.03008 -4.95138 -0.697593 172.795 0.121218 -0.676369 180 7.01549e-015 178.931 177.715 6.59154 179.63 3.02663e-006 1.24668e-006 0.163763 -20.8337 70.4365 21.8222 8.15601 25.5213 -3.09488 -176.035 -0.126704 1.85333 4.54188e-006 -4.6773e-006 -1.06296 -1.95794 -3.20211 0.0242734 -1.37498e-006 -4.95266e-006 -0.0337974 18.8967 68.1538 -19.677 -8.13649 25.2327 3.48774 
53.3435 95.6263 13.3744 1.23907 1.54959 3.88486 -0.403831 -2.91046 -0.155849 -0.813833 -1.81636 -0.284903 -0.811604 -0.171387 -0.271276 -0.642986 40.3706 -1.72187 4.48452 -9.99286 -1.17546 4.51013 -12.4855 -10.0942 -0.397677 42.6768 102.298 -2.8625e-014 -3.97569e-015 -3.18055e-015 -20.2258 30.011 14.2833 6.70473e-006 -2.80872e-006 -3.01102 8.03025 -4.95137 0.697634 -4.50019 -13.7258 12.205 13.445 43.8121 -105.094 1.27222e-014 -1.59028e-015 -3.97569e-015 20.2496 28.3929 -13.0896 3.18055e-005 2.69424e-006 3.00589 -8.03008 -4.95138 -0.697593 172.789 0.12534 -0.673433 180 7.01549e-015 178.931 177.715 6.59213 179.63 3.02663e-006 1.24668e-006 0.163716 -20.8336 70.4365 21.8216 8.15598 25.5209 -3.09505 -176.039 -0.125992 1.85356 4.54188e-006 -4.6773e-006 -1.06302 -1.961 -3.20428 0.0240525 -1.37498e-006 -4.95266e-006 -0.033772 18.8965 68.1538 -19.6765 -8.13649 25.2327 3.48774 
53.3486 95.6262 13.371 1.24135 1.55213 3.87649 -0.401791 -2.9121 -0.154784 -0.810314 -1.82001 -0.282985 -0.807601 -0.175035 -0.26941 -0.684434 40.3738 -1.70409 4.52111 -9.98974 -1.1715 4.59076 -12.4645 -10.0533 -0.339273 42.6721 102.178 -3.18055e-015 9.93923e-015 -3.97569e-015 -20.1929 29.9012 14.2221 6.70473e-006 -2.80872e-006 -3.01102 8.03025 -4.95137 0.697634 -4.60337 -13.713 12.172 13.3205 43.821 -104.88 6.36111e-015 -2.78299e-015 -2.38542e-015 20.1639 28.3076 -13.0094 3.18055e-005 2.69424e-006 3.00589 -8.03008 -4.95138 -0.697593 172.783 0.129001 -0.670895 180 7.01549e-015 178.931 177.716 6.59259 179.63 3.02663e-006 1.24668e-006 0.163669 -20.8337 70.4367 21.8213 8.15595 25.5205 -3.09533 -176.043 -0.125736 1.85363 4.54188e-006 -4.6773e-006 -1.06312 -1.96397 -3.20615 0.0238522 -1.37498e-006 -4.95266e-006 -0.0337466 18.8964 68.1538 -19.6761 -8.13649 25.2327 3.48774 
